Coordinates
version=1
nRows=14
nColumns=63
inDegrees=yes

Units are S.I. units (second, meters, Newtons, ...)
If the header above contains a line with 'inDegrees', this indicates whether rotational values are in degrees (yes) or radians (no).

endheader
time	pelvis_tilt	pelvis_list	pelvis_rotation	pelvis_tx	pelvis_ty	pelvis_tz	hip_flexion_r	hip_adduction_r	hip_rotation_r	knee_angle_r	knee_angle_r_beta	ankle_angle_r	subtalar_angle_r	mtp_angle_r	hip_flexion_l	hip_adduction_l	hip_rotation_l	knee_angle_l	knee_angle_l_beta	ankle_angle_l	subtalar_angle_l	mtp_angle_l	L5_S1_Flex_Ext	L5_S1_Lat_Bending	L5_S1_axial_rotation	L4_L5_Flex_Ext	L4_L5_Lat_Bending	L4_L5_axial_rotation	L3_L4_Flex_Ext	L3_L4_Lat_Bending	L3_L4_axial_rotation	L2_L3_Flex_Ext	L2_L3_Lat_Bending	L2_L3_axial_rotation	L1_L2_Flex_Ext	L1_L2_Lat_Bending	L1_L2_axial_rotation	L1_T12_Flex_Ext	L1_T12_Lat_Bending	L1_T12_axial_rotation	Abs_r3	Abs_r2	Abs_r1	Abs_t1	Abs_t2	neck_flexion	neck_bending	neck_rotation	arm_flex_r	arm_add_r	arm_rot_r	elbow_flex_r	pro_sup_r	wrist_flex_r	wrist_dev_r	arm_flex_l	arm_add_l	arm_rot_l	elbow_flex_l	pro_sup_l	wrist_flex_l	wrist_dev_l
7.000000	5.858841	7.663250	97.069379	-0.139492	0.797172	0.719762	-2.317043	0.995122	-21.197021	18.156046	0.316883	27.809817	11.950843	0.000000	-1.077136	-4.803200	-4.472035	15.022434	0.262191	31.594751	12.889813	0.000000	-0.767443	1.169464	7.360890	-1.425219	1.555387	7.820945	-1.260832	2.843435	7.820945	-0.877111	2.843435	6.440779	-0.712648	2.384771	5.980723	-0.438517	1.811500	5.520667	-5.481769	13.229212	40.939060	0.000000	0.000000	1.475499	0.347478	-42.556786	-40.024779	-19.301155	-67.005284	126.755770	63.765518	-3.551638	24.066849	61.319160	31.148428	224.503701	0.057374	0.884755	-69.882096	-24.567239
7.016667	5.905363	7.667660	97.352127	-0.139982	0.797158	0.721184	-2.232977	0.996633	-21.574777	18.291436	0.319246	27.665173	12.060491	0.000000	-0.832845	-4.853751	-4.141949	15.235950	0.265917	31.539615	12.857821	0.000000	-0.771582	1.176070	7.316792	-1.432904	1.564173	7.774092	-1.267632	2.859496	7.774092	-0.881841	2.859496	6.402193	-0.716491	2.398242	5.944894	-0.440882	1.821732	5.487594	-5.511331	13.303937	40.693804	0.000000	0.000000	1.640230	0.225123	-42.563490	-40.263557	-19.709537	-67.447689	126.081379	59.790150	-3.839264	24.206778	61.491340	31.372936	225.447220	0.057185	0.856725	-69.885548	-24.563376
7.033333	5.918656	7.618189	97.643944	-0.140476	0.796914	0.722185	-2.109690	0.958925	-21.895218	18.477794	0.322498	27.557330	12.069549	0.000000	-0.570880	-4.860881	-3.800525	15.443582	0.269541	31.515095	12.845275	0.000000	-0.770169	1.169864	7.224212	-1.430281	1.555919	7.675725	-1.265311	2.844407	7.675725	-0.880226	2.844407	6.321185	-0.715179	2.385587	5.869672	-0.440075	1.812119	5.418159	-5.501242	13.233736	40.178899	0.000000	0.000000	1.871482	0.195894	-42.423901	-40.271002	-20.275744	-67.554131	125.556797	56.195225	-3.946344	24.506222	61.785578	31.520594	226.081055	0.057362	0.834283	-69.887593	-24.552530
7.050000	5.909849	7.525916	97.919704	-0.140973	0.796450	0.722717	-1.969475	0.886215	-22.191527	18.690446	0.326210	27.507679	12.070344	0.000000	-0.317269	-4.832247	-3.467242	15.628219	0.272764	31.527441	12.832799	0.000000	-0.763322	1.153659	7.101307	-1.417565	1.534367	7.545138	-1.254061	2.805007	7.545138	-0.872401	2.805007	6.213643	-0.708821	2.352542	5.769812	-0.436162	1.787018	5.325980	-5.452332	13.050425	39.495338	0.000000	0.000000	2.121874	0.208540	-42.227088	-40.126691	-20.926561	-67.446420	125.197706	53.165222	-3.848404	24.937032	62.200356	31.645410	226.498909	0.057888	0.814733	-69.888425	-24.534756
7.066667	5.880707	7.390525	98.192766	-0.141449	0.795784	0.722818	-1.803390	0.789068	-22.430661	18.927969	0.330355	27.519513	11.994896	0.000000	-0.065133	-4.774035	-3.136817	15.794044	0.275658	31.574148	12.832334	0.000000	-0.751394	1.128155	6.949031	-1.395415	1.500446	7.383346	-1.234466	2.742996	7.383346	-0.858769	2.742996	6.080402	-0.697745	2.300534	5.646088	-0.429347	1.747512	5.211773	-5.367136	12.761915	38.648427	0.000000	0.000000	2.410423	0.294683	-41.938012	-39.832181	-21.628713	-67.119983	124.975155	50.549511	-3.654885	25.448506	62.710122	31.744496	226.654672	0.058729	0.803740	-69.888010	-24.514013
7.083333	5.835499	7.217151	98.434381	-0.141834	0.794965	0.722529	-1.607609	0.686166	-22.532166	19.178237	0.334723	27.584602	11.774000	0.000000	0.175406	-4.697976	-2.860964	15.930618	0.278042	31.652275	12.864053	0.000000	-0.735249	1.095160	6.780151	-1.365431	1.456563	7.203910	-1.207940	2.662773	7.203910	-0.840316	2.662773	5.932632	-0.682752	2.233251	5.508873	-0.420121	1.696403	5.085113	-5.251809	12.388672	37.709165	0.000000	0.000000	2.724596	0.434771	-41.535811	-39.397232	-22.319108	-66.631023	124.862800	48.560372	-3.332141	25.975083	63.283162	31.834260	226.588826	0.059773	0.803778	-69.886452	-24.491187
7.100000	5.784924	7.009847	98.683497	-0.142185	0.794022	0.721890	-1.393548	0.585584	-22.568345	19.422453	0.338986	27.700978	11.443546	0.000000	0.419542	-4.615993	-2.599149	16.054917	0.280211	31.759428	12.929136	0.000000	-0.714786	1.056856	6.600482	-1.327430	1.405618	7.013012	-1.174322	2.569639	7.013012	-0.816929	2.569639	5.775422	-0.663751	2.155140	5.362892	-0.408429	1.637069	4.950362	-5.105647	11.955363	36.709901	0.000000	0.000000	3.085235	0.645099	-41.100828	-38.854698	-22.914431	-66.116265	124.883821	47.072514	-2.980608	26.753172	63.855896	31.956198	226.197826	0.061134	0.821652	-69.883819	-24.471499
7.116667	5.715174	6.774414	98.845211	-0.142359	0.793013	0.720955	-1.147951	0.470693	-22.460231	19.678688	0.343458	27.868727	11.033742	0.000000	0.633633	-4.515005	-2.452957	16.132360	0.281563	31.878357	13.022294	0.000000	-0.693263	1.011664	6.429021	-1.287458	1.345513	6.830835	-1.138961	2.459759	6.830835	-0.792330	2.459759	5.625393	-0.643764	2.062984	5.223580	-0.396130	1.567067	4.821766	-4.951907	11.444141	35.756286	0.000000	0.000000	3.478120	0.900767	-40.643100	-38.240901	-23.419299	-65.508918	124.953723	46.067573	-2.661135	27.414442	64.423459	32.110512	225.671664	0.062595	0.838459	-69.880192	-24.452089
7.133333	5.655034	6.523452	98.946386	-0.142415	0.791978	0.719793	-0.890378	0.377555	-22.246603	19.921419	0.347694	28.057246	10.547416	0.000000	0.827207	-4.427027	-2.385239	16.183929	0.282463	32.011731	13.119099	0.000000	-0.669635	0.965098	6.261024	-1.243580	1.283580	6.652338	-1.100144	2.346539	6.652338	-0.765326	2.346539	5.478396	-0.621823	1.968028	5.087082	-0.382630	1.494937	4.695768	-4.783138	10.917381	34.821939	0.000000	0.000000	3.895745	1.186492	-40.106841	-37.527018	-23.841276	-64.850434	125.066789	45.603543	-2.324482	28.098024	64.964262	32.296790	225.036969	0.064165	0.863846	-69.875724	-24.435180
7.150000	5.585395	6.262923	98.974658	-0.142344	0.790960	0.718472	-0.627565	0.282484	-21.950326	20.149870	0.351682	28.257839	10.040970	0.000000	0.987984	-4.334490	-2.429552	16.196138	0.282676	32.142123	13.242792	0.000000	-0.645429	0.915519	6.095718	-1.198627	1.217641	6.476701	-1.060376	2.225994	6.476701	-0.737661	2.225994	5.333754	-0.599346	1.866927	4.952771	-0.368798	1.418140	4.571789	-4.610237	10.356540	33.902558	0.000000	0.000000	4.303129	1.494129	-39.511122	-36.743367	-24.233557	-64.031030	125.147475	45.178598	-2.136893	28.499119	65.473076	32.488143	224.420649	0.065732	0.889178	-69.870783	-24.420664
7.166667	5.517799	6.003019	98.931762	-0.142171	0.789989	0.717128	-0.364511	0.196769	-21.583938	20.357017	0.355297	28.446048	9.523330	0.000000	1.126991	-4.246103	-2.551871	16.188793	0.282548	32.265575	13.348160	0.000000	-0.621818	0.866547	5.932801	-1.154779	1.152508	6.303601	-1.021585	2.106923	6.303601	-0.710676	2.106923	5.191201	-0.577420	1.767063	4.820401	-0.355307	1.342282	4.449600	-4.441586	9.802555	32.996457	0.000000	0.000000	4.716898	1.803804	-38.829189	-35.872356	-24.644239	-63.101452	125.184589	44.737324	-1.938712	28.764809	65.947339	32.663460	223.896210	0.067254	0.917733	-69.865762	-24.410183
7.183333	5.448332	5.757605	98.808874	-0.141881	0.789113	0.715822	-0.112964	0.118586	-21.142888	20.540051	0.358492	28.615164	9.006080	0.000000	1.231775	-4.161675	-2.776942	16.158958	0.282027	32.378619	13.457927	0.000000	-0.599309	0.819514	5.779244	-1.112976	1.089953	6.140446	-0.984604	1.992565	6.140446	-0.684950	1.992565	5.056838	-0.556518	1.671152	4.695635	-0.342445	1.269427	4.334433	-4.280801	9.270502	32.142419	0.000000	0.000000	5.108439	2.096676	-38.099451	-34.978873	-25.075943	-62.058015	125.167165	44.618164	-1.802926	28.618065	66.373858	32.803766	223.613972	0.068608	0.942828	-69.861065	-24.403133
7.200000	5.393921	5.543945	98.568409	-0.141483	0.788369	0.714665	0.124087	0.056450	-20.623587	20.709996	0.361458	28.756764	8.533498	0.000000	1.289109	-4.096101	-3.133254	16.108739	0.281151	32.487948	13.561623	0.000000	-0.579535	0.779932	5.649192	-1.076255	1.037309	6.002266	-0.952119	1.896326	6.002266	-0.662351	1.896326	4.943043	-0.538157	1.590437	4.589968	-0.331147	1.208114	4.236894	-4.139563	8.822742	31.419109	0.000000	0.000000	5.433505	2.267047	-37.399138	-34.161290	-25.562883	-60.993083	125.123901	45.041966	-1.753962	28.054289	66.728821	32.895654	223.504348	0.069809	0.973352	-69.857072	-24.403685
7.216667	5.347511	5.371269	98.312596	-0.141034	0.787789	0.713754	0.325246	0.014755	-20.114821	20.844989	0.363814	28.865680	8.094042	0.000000	1.326401	-4.044960	-3.477794	16.065348	0.280393	32.576967	13.637061	0.000000	-0.562165	0.747834	5.528889	-1.043997	0.994619	5.874445	-0.923581	1.818283	5.874445	-0.642498	1.818283	4.837778	-0.522026	1.524982	4.492222	-0.321221	1.158394	4.146667	-4.015488	8.459643	30.750022	0.000000	0.000000	5.709115	2.356973	-36.705870	-33.412268	-26.082031	-59.923190	125.018095	45.208304	-1.554804	27.151832	67.023178	32.894915	223.805546	0.070592	0.989148	-69.854030	-24.403974
